# xmcd
#
# Track frame offsets:
#	150
#	10635
#	24295
#	36248
#	48496
#	51449
#	64017
#	77218
#	91994
#	106091
#	109044
#	122302
#	134037
#	146699
#	149652
#	161704
#	175994
#	187924
#	200257
#	203210
#	215421
#	227545
#	239723
#	252164
#	255117
#	268813
#	279943
#
# Disc length: 3913 seconds
#
# Revision: 1
# Processed by: cddbd v1.5.2PL0 Copyright (c) Steve Scherf et al.
# Submitted via: audiograbber 1.83.01
#
DISCID=800f471b
DTITLE=Various Artist - fertige Tandas
DYEAR=2010
DGENRE=Tango
TTITLE0=Osvaldo Fresedo con Oscar Serpa - Este Viejo Corazon
TTITLE1=Osvaldo Fresedo con Oscar Serpa - Te Llaman Mi Violin
TTITLE2=Osvaldo Fresedo con Oscar Serpa - Fui Testigo
TTITLE3=Osvaldo Fresedo con Oscar Serpa - En Cada Puerto Un Adios
TTITLE4=Bad Things (TV Serie True Blood)
TTITLE5=Carlos di Sarli con Jorge Duran - Duello Criollo
TTITLE6=Carlos di Sarli con Jorge Duran - Vieja Luna
TTITLE7=Carlos di Sarli con Jorge Duran - Hoy la Recordarla
TTITLE8=Carlos di Sarli con Jorge Duran - Clavel del Aire
TTITLE9=Bad Things (TV Serie True Blood)
TTITLE10=Orquesta Tipica Victor - Milonga de Los Fortines
TTITLE11=Orquesta Tipica Victor - Milonga Del Aguatero
TTITLE12=Orquesta Tipica Victor - Cacareando
TTITLE13=Bad Things (TV Serie True Blood)
TTITLE14=Ricardo Tanturi con Enrique Campos - Discos de Gardel
TTITLE15=Ricardo Tanturi con Enrique Campos - La Uruguacita Lucia
TTITLE16=Ricardo Tanturi con Enrique Campos - Una Emocion
TTITLE17=Ricardo Tanturi con Enrique Campos - Recien
TTITLE18=Bad Things (TV Serie True Blood)
TTITLE19=Rodolfo Biagi con Hugo Duval - Triste Comedia
TTITLE20=Rodolfo Biagi con Hugo Duval - Y No Te Voy a Llorar
TTITLE21=Rodolfo Biagi con Hugo Duval - Bailarina De Tango
TTITLE22=Rodolfo Biagi con Hugo Duval - Por Tener Un Corazon
TTITLE23=Bad Things (TV Serie True Blood)
TTITLE24=Enrique Rodriguez con Armando Moreno - No Te Mires En El Rio
TTITLE25=Enrique Rodriguez con Armando Moreno - Mantelito Blanco
TTITLE26=Enrique Rodriguez con Armando Moreno - Mariquita No Mires Al Puerto
EXTD=
EXTT0=
EXTT1=
EXTT2=
EXTT3=
EXTT4=
EXTT5=
EXTT6=
EXTT7=
EXTT8=
EXTT9=
EXTT10=
EXTT11=
EXTT12=
EXTT13=
EXTT14=
EXTT15=
EXTT16=
EXTT17=
EXTT18=
EXTT19=
EXTT20=
EXTT21=
EXTT22=
EXTT23=
EXTT24=
EXTT25=
EXTT26=
PLAYORDER=
